:SAMPLES-PER-SECOND 30
:FULLY-SPECIFIED
:DEGREES
147
root  34.97268497 36.52219697 -14.7017096 10.15431118 2.48102951 3.759625435
lowerback  -8.008536339 2.440723658 2.261462688
upperback  -4.148839951 2.722559929 -4.221899986
thorax  0.5017459989 1.116099954 -5.426380157
lowerneck  -15.45870018 3.953259945 6.191239834
upperneck  15.80550003 2.945689678 3.670749903
head  7.480040073 2.019360065 0.5068989992
lclavicle  0 -4.497500157e-015 -2.743230041e-014
lhumerus  -43.6413002 24.5114994 69.61389923
lradius  -0.04932336882 -6.507048965e-006 27.24470139
lwrist  4.824992743e-007 -3.790274832e-007 -29.40509987
lhand  -4.421075406e-031 -36.99359894 -10.73900032
lfingers  90 7.125020027 -90
lthumb  94.87364258 -25.57032378 101.1749705
rclavicle  0 -4.497500157e-015 -2.743230041e-014
rhumerus  56.60969543 14.81459999 -53.7519989
rradius  -5.16745672e-007 2.214343908e-008 66.30770111
rwrist  -3.062178075e-005 0.0157625936 -173.076004
rhand  -1.773272061e-031 5.344679832 -6.189730167
rfingers  -90 -7.125020027 -90
rthumb  -84.14803469 -9.744171156 -58.80205063
rfemur  -13.00395012 13.54695415 13.38788891
rtibia  -1.439921737 0.416476965 21.57914352
rfoot  -0.9443144798 -19.00340271 -40.07770538
rtoes  4.002570987 19.61148178 -101.7759506
lfemur  -9.831338882 -18.6889019 -19.63143539
ltibia  3.184756756 1.052971125 14.42788124
lfoot  0.8889570236 -27.3121357 33.63770676
ltoes  -8.621687307 -18.11529044 -115.9958678
148
root  34.973529 36.52255141 -14.70316189 10.19186211 2.579604864 3.787559032
lowerback  -7.989699841 2.454180002 2.28034997
upperback  -4.146113873 2.739909887 -4.220809937
thorax  0.4906260073 1.124629974 -5.436359882
lowerneck  -15.48630047 4.117090225 6.363659859
upperneck  15.84729958 3.138269901 3.596479893
head  7.505809784 2.116650105 0.4779890478
lclavicle  0 -4.497500157e-015 -2.743230041e-014
lhumerus  -43.61740112 24.4958992 69.63110352
lradius  -0.0503301844 -6.507048965e-006 27.23130035
lwrist  4.824992743e-007 -3.790274832e-007 -29.35490036
lhand  -0 -36.94309998 -10.68309975
lfingers  90 7.125020027 -90
lthumb  94.83800898 -25.51723726 101.1159128
rclavicle  0 -4.497500157e-015 -2.743230041e-014
rhumerus  57.2120018 14.78699875 -53.67620087
rradius  -5.16745672e-007 2.214343908e-008 65.56340027
rwrist  -3.062178075e-005 0.01570294425 -172.2969971
rhand  -1.77228767e-031 4.99296999 -6.562530041
rfingers  -90 -7.125020027 -90
rthumb  -84.43170458 -9.404539094 -59.17832201
rfemur  -13.06083775 13.56073952 13.37977314
rtibia  -1.471464038 0.4364917278 21.64727211
rfoot  -0.9818030596 -18.94214058 -40.1542244
rtoes  3.999514057 19.61208186 -101.766843
lfemur  -9.861999512 -18.76433945 -19.65076065
ltibia  3.209598541 1.04433465 14.40484905
lfoot  0.8817581534 -27.27180862 33.59905624
ltoes  -8.641864051 -18.10592539 -116.0607756
149
root  34.97421084 36.52220298 -14.70253411 10.2315197 2.702913523 3.82060957
lowerback  -7.982130527 2.455389977 2.288480759
upperback  -4.145233154 2.742599964 -4.209300041
thorax  0.4878329933 1.126700044 -5.428820133
lowerneck  -15.49489975 4.261300087 6.507239819
upperneck  15.85540009 3.312989712 3.532749891
head  7.516520023 2.203850031 0.4544139802
lclavicle  0 -4.497500157e-015 -2.743230041e-014
lhumerus  -43.57540131 24.51350021 69.65059662
lradius  -0.05134162307 -6.507048965e-006 27.20420265
lwrist  4.824992743e-007 -3.790274832e-007 -29.29759979
lhand  -4.418381259e-031 -36.94720078 -10.64820004
lfingers  90 7.125020027 -90
lthumb  94.83244991 -25.48285924 101.1170268
rclavicle  0 -4.497500157e-015 -2.743230041e-014
rhumerus  57.77180481 14.71339893 -53.69049454
rradius  -5.16745672e-007 2.214343908e-008 64.87750244
rwrist  -3.062178075e-005 0.0156432949 -171.7910004
rhand  -1.773186655e-031 5.315100193 -6.676799774
rfingers  -90 -7.125020027 -90
rthumb  -84.41111477 -9.325634523 -58.87330211
rfemur  -13.11312294 13.5490942 13.36696625
rtibia  -1.503336787 0.4563497901 21.71539497
rfoot  -1.025084972 -18.87778282 -40.24000931
rtoes  3.99450198 19.6130647 -101.7519109
lfemur  -9.871749878 -18.82943153 -19.6821804
ltibia  3.253990173 1.063113451 14.34451294
lfoot  0.8814256787 -27.27640915 33.54915237
ltoes  -8.633038116 -18.11002533 -116.0323789
150
root  34.97342988 36.52086633 -14.70331057 10.26902485 2.824318886 3.83370018
lowerback  -7.988339901 2.464240074 2.315250158
upperback  -4.148359776 2.753299952 -4.22468996
thorax  0.499029994 1.13211 -5.459060192
lowerneck  -15.50949955 4.350940228 6.656219959
upperneck  15.83380032 3.42171979 3.431240082
head  7.51846981 2.256139994 0.4099949598
lclavicle  0 -4.497500157e-015 -2.743230041e-014
lhumerus  -43.54719925 24.51689911 69.63870239
lradius  -0.05235764012 -6.507048965e-006 27.19930077
lwrist  4.824992743e-007 -3.790274832e-007 -29.27289963
lhand  -4.419437315e-031 -36.9654007 -10.70269966
lfingers  90 7.125020027 -90
lthumb  94.85264533 -25.53563328 101.1415517
rclavicle  0 -4.497500157e-015 -2.743230041e-014
rhumerus  58.27830505 14.55889893 -53.8791008
rradius  -5.16745672e-007 2.214343908e-008 64.15640259
rwrist  -3.062178075e-005 0.01558364835 -171.7899933
rhand  -1.773674342e-031 5.48183012 -6.743000031
rfingers  -90 -7.125020027 -90
rthumb  -84.40421718 -9.279186068 -58.71612387
rfemur  -13.15697956 13.53286266 13.37607861
rtibia  -1.526379108 0.4919109344 21.76205444
rfoot  -1.049804926 -18.79249573 -40.30651093
rtoes  3.993684289 19.61322492 -101.7494749
lfemur  -9.911021233 -18.85198784 -19.67495728
ltibia  3.270357609 1.101727605 14.33231449
lfoot  0.8863635063 -27.34437752 33.48161316
ltoes  -8.638437674 -18.10751767 -116.0497508
151
root  34.9729553 36.51924434 -14.70422369 10.3218689 2.937606335 3.853534937
lowerback  -7.964710712 2.503070116 2.386220455
upperback  -4.160850048 2.801460028 -4.225190163
thorax  0.4817219973 1.155369997 -5.496610165
lowerneck  -15.50010014 4.382390022 6.655379772
upperneck  15.82489967 3.473449707 3.406869888
head  7.514840126 2.279269934 0.4077549875
lclavicle  0 -4.497500157e-015 -2.743230041e-014
lhumerus  -43.55500031 24.52680016 69.66059875
lradius  -0.05337819457 -6.507048965e-006 27.16760063
lwrist  4.824992743e-007 -3.790274832e-007 -29.40159988
lhand  -0 -37.3423996 -10.82909966
lfingers  90 7.125020027 -90
lthumb  95.05768548 -25.64579509 101.5569128
rclavicle  0 -4.497500157e-015 -2.743230041e-014
rhumerus  58.74309921 14.49869919 -53.81969833
rradius  -5.16745672e-007 2.214343908e-008 63.51089859
rwrist  -3.062178075e-005 0.01552399993 -171.3220062
rhand  -1.773899217e-031 5.55700016 -6.874619961
rfingers  -90 -7.125020027 -90
rthumb  -84.45481231 -9.1713312 -58.65379565
rfemur  -13.214921 13.45508194 13.36733437
rtibia  -1.550639749 0.4692127109 21.80190086
rfoot  -1.095755339 -18.81650734 -40.37339783
rtoes  3.990627032 19.61382367 -101.7403671
lfemur  -9.952640533 -18.89418793 -19.67308998
ltibia  3.300928831 1.14442265 14.30002785
lfoot  0.9095473886 -27.40678406 33.4622345
ltoes  -8.618808588 -18.11662437 -115.9866097
